<svg width="32" height="33" xmlns="http://www.w3.org/2000/svg"><path d="M27.663 4.513C24.963 1.603 21.207 0 17.087 0H15.97C7.673 0 .894 6.6.594 14.826c-.003.028-.014.053-.014.08v7.466c0 .013.007.026.008.039a15.367 15.367 0 0 0 3.833 9.998.678.678 0 0 0 .688.206l24.74-6.759a.68.68 0 0 0 .475-.473c.277-1 .457-2.029.534-3.057l.518-6.922c.308-4.111-1.01-7.98-3.713-10.891zM1.937 15.48l14.136-2.36c1.15-.192 2.065.02 2.51.58.443.562.437 1.5-.015 2.575l-2.213 5.254-14.418.155v-6.204zm28.086-.178l-.518 6.923a14.51 14.51 0 0 1-.392 2.424L5.166 31.192a14.005 14.005 0 0 1-3.194-8.15l14.843-.16a.678.678 0 0 0 .618-.415l2.385-5.664c.66-1.567.6-2.968-.17-3.943-.772-.976-2.12-1.358-3.798-1.078L2.003 14.094C2.66 6.962 8.67 1.357 15.969 1.357h1.118c3.738 0 7.14 1.45 9.581 4.079 2.443 2.632 3.634 6.136 3.355 9.867z" fill="#000" fill-rule="nonzero"/></svg>